<svg width="42" height="40" viewBox="0 0 42 40" fill="none" xmlns="http://www.w3.org/2000/svg">
<path d="M15.1726 10.98C12.265 13.0386 11.376 11.0544 9.84031 7.24901C8.5856 4.13987 3.88061 5.07261 2.62603 6.31627C0.772506 8.15367 0.164671 13.8435 2.62603 17.1983C5.13532 20.6183 7.95832 17.8201 7.95832 21.862C7.95832 24.0384 -0.510648 28.3912 4.82167 34.9205C10.154 41.4497 14.2316 28.3912 18.6229 27.4585C23.0142 26.5257 15.8 43.1127 27.4056 38.0296C40.8932 32.1222 27.5388 27.1049 29.6012 24.0384C30.8559 22.1729 42.2149 26.1542 40.8932 19.9965C37.7565 5.38349 27.4056 14.0891 26.1509 14.0891C24.6539 14.0891 23.3279 11.1665 24.5826 8.18173C26.1509 4.45073 27.4056 1.65252 19.5639 1.03069C11.7223 0.408858 17.3683 9.42542 15.1726 10.98Z" stroke="black"/>
</svg>
