<svg width="39" height="40" viewBox="0 0 39 40" fill="none" xmlns="http://www.w3.org/2000/svg">
<path fill-rule="evenodd" clip-rule="evenodd" d="M19.5 0.178574C19.7761 0.178574 20 0.402431 20 0.678574V31.0621L28.3737 21.4922C28.5556 21.2844 28.8714 21.2633 29.0793 21.4451C29.2871 21.627 29.3081 21.9429 29.1263 22.1507L19.8763 32.7221C19.7833 32.8284 19.6497 32.8904 19.5086 32.8928C19.3674 32.8952 19.2318 32.8378 19.1352 32.7348L9.22452 22.1634C9.03565 21.9619 9.04586 21.6455 9.24732 21.4567C9.44877 21.2678 9.76519 21.278 9.95405 21.4795L19 31.1285V0.678574C19 0.402431 19.2239 0.178574 19.5 0.178574ZM1 20C1.27614 20 1.5 20.2239 1.5 20.5V38.5H37.5V20.5C37.5 20.2239 37.7239 20 38 20C38.2761 20 38.5 20.2239 38.5 20.5V39.5H0.5V20.5C0.5 20.2239 0.723858 20 1 20Z" fill="black"/>
</svg>
