<svg width="46" height="41" viewBox="0 0 46 41" fill="none" xmlns="http://www.w3.org/2000/svg">
<path fill-rule="evenodd" clip-rule="evenodd" d="M22.8202 0.500654C29.3256 0.763624 32.8974 4.56303 34.8585 8.2487C35.8366 10.0869 36.4195 11.9033 36.777 13.2529C36.9398 13.8678 37.0566 14.3886 37.1414 14.767L37.1653 14.8739C37.1843 14.9584 37.2011 15.0321 37.216 15.0957C39.6763 15.1764 41.5715 16.0839 42.8878 17.443C44.2605 18.8604 44.9761 20.74 45.076 22.6064C45.1757 24.4709 44.6625 26.3562 43.533 27.7855C42.3941 29.2267 40.6485 30.1765 38.3619 30.1765H29.8246C29.5484 30.1765 29.3246 29.9526 29.3246 29.6765C29.3246 29.4003 29.5484 29.1765 29.8246 29.1765H38.3619C40.3441 29.1765 41.8001 28.3655 42.7484 27.1654C43.7062 25.9535 44.166 24.3171 44.0774 22.6599C43.9889 21.0046 43.3548 19.3626 42.1695 18.1387C40.9913 16.9222 39.2409 16.0898 36.8554 16.0898C36.6079 16.0898 36.4733 15.9219 36.4465 15.8877C36.4032 15.8324 36.3779 15.778 36.3657 15.7503C36.3391 15.6897 36.3185 15.6217 36.3029 15.5658C36.27 15.4478 36.2323 15.2828 36.1897 15.0932L36.1657 14.9863C36.0809 14.608 35.968 14.1044 35.8103 13.5089C35.464 12.2015 34.905 10.4648 33.9757 8.71844C32.1249 5.24 28.8273 1.74961 22.7941 1.50042C16.7608 1.74961 13.4633 5.24 11.6124 8.71844C10.6832 10.4648 10.1241 12.2015 9.77784 13.5089C9.62012 14.1044 9.50723 14.608 9.42242 14.9863L9.39843 15.0932C9.35582 15.2828 9.3181 15.4478 9.2852 15.5658C9.2696 15.6217 9.24905 15.6897 9.2224 15.7503C9.21027 15.778 9.18493 15.8324 9.14163 15.8877C9.11488 15.9219 8.98022 16.0898 8.73269 16.0898C6.34722 16.0898 4.59683 16.9222 3.41867 18.1387C2.23333 19.3626 1.59927 21.0046 1.51074 22.6599C1.42211 24.3171 1.88193 25.9535 2.8397 27.1654C3.78804 28.3655 5.24401 29.1765 7.22626 29.1765H15.7636C16.0397 29.1765 16.2636 29.4003 16.2636 29.6765C16.2636 29.9526 16.0397 30.1765 15.7636 30.1765H7.22626C4.93968 30.1765 3.19407 29.2267 2.05512 27.7855C0.92561 26.3562 0.412448 24.4709 0.512167 22.6064C0.611993 20.74 1.32762 18.8604 2.70034 17.443C4.01666 16.0839 5.91185 15.1764 8.37219 15.0957C8.38705 15.0321 8.40379 14.9584 8.42279 14.8739L8.44676 14.767L8.44677 14.767C8.53158 14.3886 8.64832 13.8677 8.81117 13.2529C9.16862 11.9033 9.7515 10.0869 10.7296 8.2487C12.6907 4.56303 16.2626 0.763624 22.768 0.500654C22.77 0.500572 22.772 0.50049 22.7741 0.500409C22.7808 0.500141 22.7874 0.500005 22.7941 0.5" fill="black"/>
<path fill-rule="evenodd" clip-rule="evenodd" d="M22.7942 40.5C22.518 40.5 22.2942 40.2761 22.2942 40L22.2942 17.2634L16.2914 24.2666C16.1117 24.4762 15.7961 24.5005 15.5864 24.3208C15.3767 24.1411 15.3525 23.8254 15.5322 23.6158L22.4145 15.5864C22.5095 15.4755 22.6482 15.4118 22.7942 15.4118C22.9401 15.4118 23.0788 15.4755 23.1738 15.5864L30.0561 23.6158C30.2358 23.8254 30.2116 24.1411 30.0019 24.3208C29.7922 24.5005 29.4766 24.4762 29.2969 24.2666L23.2942 17.2634L23.2942 40C23.2942 40.2761 23.0703 40.5 22.7942 40.5Z" fill="black"/>
</svg>
